<svg id="visual" preserveaspectratio="false" width="960" height="540" xmlns="http://www.w3.org/2000/svg" xmlns:xlink="http://www.w3.org/1999/xlink" version="1.1"><path d="M0 71L32 91.7C64 112.3 128 153.7 192 151C256 148.3 320 101.7 384 78.3C448 55 512 55 576 80.2C640 105.3 704 155.7 768 157.5C832 159.3 896 112.7 928 89.3L960 66L960 0L928 0C896 0 832 0 768 0C704 0 640 0 576 0C512 0 448 0 384 0C320 0 256 0 192 0C128 0 64 0 32 0L0 0Z" fill="#1b1c1d"></path><path d="M0 271L32 292.7C64 314.3 128 357.7 192 347.8C256 338 320 275 384 221C448 167 512 122 576 135.5C640 149 704 221 768 225.5C832 230 896 167 928 135.5L960 104L960 64L928 87.3C896 110.7 832 157.3 768 155.5C704 153.7 640 103.3 576 78.2C512 53 448 53 384 76.3C320 99.7 256 146.3 192 149C128 151.7 64 110.3 32 89.7L0 69Z" fill="#787068"></path><path d="M0 541L32 541C64 541 128 541 192 541C256 541 320 541 384 541C448 541 512 541 576 541C640 541 704 541 768 541C832 541 896 541 928 541L960 541L960 102L928 133.5C896 165 832 228 768 223.5C704 219 640 147 576 133.5C512 120 448 165 384 219C320 273 256 336 192 345.8C128 355.7 64 312.3 32 290.7L0 269Z" fill="#1b1c1d"></path></svg>