<svg id="visual" preserveaspectratio="false" width="960" height="540" xmlns="http://www.w3.org/2000/svg" xmlns:xlink="http://www.w3.org/1999/xlink" version="1.1"><path d="M0 217L80 190C160 163 320 109 480 114.3C640 119.7 800 184.3 880 216.7L960 249L960 0L880 0C800 0 640 0 480 0C320 0 160 0 80 0L0 0Z" fill="#1b1c1d"></path><path d="M0 476L80 462.5C160 449 320 422 480 416.7C640 411.3 800 427.7 880 435.8L960 444L960 247L880 214.7C800 182.3 640 117.7 480 112.3C320 107 160 161 80 188L0 215Z" fill="#787068"></path><path d="M0 541L80 541C160 541 320 541 480 541C640 541 800 541 880 541L960 541L960 442L880 433.8C800 425.7 640 409.3 480 414.7C320 420 160 447 80 460.5L0 474Z" fill="#1b1c1d"></path></svg>